<?xml version="1.0" encoding="UTF-8" standalone="no"?>
<!-- Created with Inkscape (http://www.inkscape.org/) -->

<svg
   xmlns:dc="http://purl.org/dc/elements/1.1/"
   xmlns:cc="http://creativecommons.org/ns#"
   xmlns:rdf="http://www.w3.org/1999/02/22-rdf-syntax-ns#"
   xmlns:svg="http://www.w3.org/2000/svg"
   xmlns="http://www.w3.org/2000/svg"
   xmlns:sodipodi="http://sodipodi.sourceforge.net/DTD/sodipodi-0.dtd"
   xmlns:inkscape="http://www.inkscape.org/namespaces/inkscape"
   width="115.55273mm"
   height="40.564686mm"
   viewBox="0 0 115.55272 40.564686"
   version="1.1"
   id="svg8"
   inkscape:version="0.92.3 (2405546, 2018-03-11)"
   sodipodi:docname="luna.svg">
  <defs
     id="defs2">
    <inkscape:path-effect
       effect="spiro"
       id="path-effect1526"
       is_visible="true" />
    <marker
       inkscape:stockid="Arrow1Lstart"
       orient="auto"
       refY="0"
       refX="0"
       id="Arrow1Lstart"
       style="overflow:visible"
       inkscape:isstock="true">
      <path
         id="path1057"
         d="M 0,0 5,-5 -12.5,0 5,5 Z"
         style="fill:#ffffff;fill-opacity:1;fill-rule:evenodd;stroke:#ffffff;stroke-width:1.00000003pt;stroke-opacity:1"
         transform="matrix(0.8,0,0,0.8,10,0)"
         inkscape:connector-curvature="0" />
    </marker>
    <linearGradient
       y2="0.54232895"
       x2="47.452709"
       y1="47.457001"
       x1="0.53803718"
       gradientUnits="userSpaceOnUse"
       id="SvgjsLinearGradient1009">
      <stop
         offset="0.05"
         stop-color="#377be7"
         id="SvgjsStop1010" />
      <stop
         offset="0.95"
         stop-color="#11418d"
         id="SvgjsStop1011" />
    </linearGradient>
  </defs>
  <sodipodi:namedview
     id="base"
     pagecolor="#ffffff"
     bordercolor="#666666"
     borderopacity="1.0"
     inkscape:pageopacity="0.0"
     inkscape:pageshadow="2"
     inkscape:zoom="1"
     inkscape:cx="231.28685"
     inkscape:cy="-147.9905"
     inkscape:document-units="mm"
     inkscape:current-layer="layer1"
     showgrid="false"
     showguides="false"
     inkscape:guide-bbox="true"
     inkscape:measure-start="0,0"
     inkscape:measure-end="0,0"
     inkscape:snap-nodes="false"
     fit-margin-top="0"
     fit-margin-left="0"
     fit-margin-right="0"
     fit-margin-bottom="0"
     inkscape:window-width="1920"
     inkscape:window-height="996"
     inkscape:window-x="0"
     inkscape:window-y="26"
     inkscape:window-maximized="1">
    <sodipodi:guide
       position="-2.3588866,-10.371351"
       orientation="0,1"
       id="guide862"
       inkscape:locked="false" />
    <sodipodi:guide
       position="-10.911526,18.627388"
       orientation="0,1"
       id="guide864"
       inkscape:locked="false" />
  </sodipodi:namedview>
  <metadata
     id="metadata5">
    <rdf:RDF>
      <cc:Work
         rdf:about="">
        <dc:format>image/svg+xml</dc:format>
        <dc:type
           rdf:resource="http://purl.org/dc/dcmitype/StillImage" />
        <dc:title></dc:title>
      </cc:Work>
    </rdf:RDF>
  </metadata>
  <g
     inkscape:label="Layer 1"
     inkscape:groupmode="layer"
     id="layer1"
     transform="translate(308.47556,6.5057482)">
    <g
       id="g874"
       transform="matrix(0.58670626,0,0,0.58670626,-79.733799,-2.688785)">
      <g
         transform="matrix(1.1772264,0,0,1.1772264,58.484356,-6.9554936)"
         id="g871">
        <g
           id="SvgjsG1008"
           transform="matrix(0.58731003,0,0,0.58731003,-381.27081,0.38203815)"
           style="fill:#1a6ca2;stroke:none;stroke-width:1px">
          <path
             id="path816"
             d="M 44,0 87.301,25 V 75 L 44,100 0.699,75 V 25 Z"
             inkscape:connector-curvature="0"
             style="fill:#1a6ca2;stroke:none;stroke-width:1px" />
        </g>
        <g
           id="SvgjsG1014"
           transform="matrix(0.29090247,0,0,0.29090247,-369.71395,15.503032)"
           style="fill:#ffffff;stroke:none;stroke-width:1px">
          <path
             id="path827"
             d="m 81.035,72.347 c -21.776,0 -39.429,-17.65 -39.429,-39.429 0,-13.43 6.729,-25.273 16.989,-32.399 C 56.355,0.215 54.085,0 51.761,0 24.149,0 1.764,22.387 1.764,50 c 0,27.613 22.385,50 49.997,50 21.125,0 39.15,-13.123 46.475,-31.639 -5.203,2.529 -11.027,3.986 -17.201,3.986 z"
             inkscape:connector-curvature="0"
             style="fill:#ffffff;stroke:none;stroke-width:1px" />
        </g>
      </g>
      <g
         id="g877">
        <g
           id="SvgjsG1021"
           transform="matrix(0.40782135,0,0,0.40782135,-300.97321,28.281349)"
           style="fill:#1a6ca2;stroke:none;stroke-width:1px">
          <path
             id="path841"
             d="M 6.433362,-5.505362 V -49.13 H -7.586464 V 5.4063477 H 34.87263 V -5.505362 Z M 83.170544,-49.13 v 39.7394921 c 0,3.1081167 -1.554059,4.6732755 -4.673276,4.6732755 H 66.808529 c -3.108116,0 -4.673275,-1.5651588 -4.673275,-4.6732755 V -49.13 H 48.115427 v 39.7394921 c 0,5.4503046 1.232147,9.41315344 3.696439,11.877446 2.475393,2.4642925 6.427142,3.6964388 11.888547,3.6964388 h 17.916072 c 5.450305,0 9.413151,-1.2321463 11.877451,-3.6964388 2.46429,-2.46429256 3.69643,-6.4271414 3.69643,-11.877446 V -49.13 Z M 161.8503,5.4063477 V -49.13 h -14.01982 v 32.724029 L 129.13737,-49.13 H 114.32942 V 5.4063477 h 14.03092 V -27.317681 l 18.69311,32.7240287 z m 26.88521,0 3.49663,-9.7350655 h 19.48123 l 3.50774,9.7350655 h 15.18537 L 209.7597,-49.13 H 194.18582 L 173.53904,5.4063477 Z m 7.00436,-19.8697457 6.23844,-18.304588 6.22733,18.304588 z"
             inkscape:connector-curvature="0"
             style="fill:#1a6ca2;stroke:none;stroke-width:1.11004174px" />
        </g>
        <g
           id="SvgjsG1029"
           transform="matrix(0.39687519,0,0,0.39687519,-318.81958,45.878885)"
           style="fill:#363636;stroke:none;stroke-width:1px">
          <path
             id="path852"
             d="M 12.63,-19.65 H 1.68 V 0 h 10.95 c 2.12,0 3.72,-0.55 4.82,-1.64 1.09,-1.1 1.64,-2.7 1.64,-4.82 v -6.73 c 0,-2.12 -0.55,-3.72 -1.64,-4.82 -1.1,-1.09 -2.7,-1.64 -4.82,-1.64 z m 1.41,6.46 v 6.73 c 0,1.69 -0.85,2.53 -2.53,2.53 H 6.74 v -11.79 h 4.77 c 1.68,0 2.53,0.84 2.53,2.53 z m 16.14,2.38 h 2.38 v -4.35 H 31.3 c -1.76,0 -3.44,0.7 -5.05,2.11 l -0.28,-1.83 H 21.62 V 0 h 4.91 v -9.97 c 1.25,-0.56 2.47,-0.84 3.65,-0.84 z m 11.23,7.02 h -0.99 c -0.28,0 -0.51,-0.09 -0.7,-0.28 -0.18,-0.19 -0.28,-0.42 -0.28,-0.7 v -10.11 h -4.91 v 10.95 c 0,1.27 0.38,2.29 1.15,3.06 0.77,0.77 1.79,1.15 3.06,1.15 H 40 c 0.64,0 1.42,-0.13 2.35,-0.41 0.92,-0.27 1.83,-0.69 2.71,-1.27 L 45.34,0 h 4.35 v -14.88 h -4.91 v 10.53 c -1.26,0.37 -2.38,0.56 -3.37,0.56 z m 20.77,2.67 v 1.4 c 0,0.28 -0.09,0.52 -0.28,0.7 -0.19,0.19 -0.42,0.28 -0.7,0.28 -1.86,0 -4.57,-0.14 -8.14,-0.42 v 3.65 c 3.61,0.38 6.88,0.56 9.82,0.56 1.27,0 2.29,-0.38 3.06,-1.15 0.77,-0.77 1.15,-1.79 1.15,-3.06 V -14.88 H 56.71 c -1.41,0 -2.51,0.4 -3.3,1.19 -0.8,0.8 -1.2,1.9 -1.2,3.3 v 5.62 c 0,1.27 0.39,2.29 1.16,3.06 0.76,0.76 1.78,1.15 3.06,1.15 h 0.98 c 1.36,0 2.95,-0.19 4.77,-0.56 z m -3.37,-3.23 h -0.7 c -0.28,0 -0.52,-0.09 -0.7,-0.28 -0.19,-0.19 -0.28,-0.42 -0.28,-0.7 v -4.64 c 0,-0.74 0.37,-1.12 1.12,-1.12 h 3.93 v 6.46 c -1.07,0.19 -2.19,0.28 -3.37,0.28 z M 88.85,0 h 4.35 v -19.65 h -4.91 v 4.77 h -5.76 c -1.4,0 -2.5,0.4 -3.3,1.19 -0.79,0.8 -1.19,1.9 -1.19,3.3 v 6.46 c 0,1.27 0.38,2.29 1.15,3.06 0.77,0.77 1.79,1.15 3.06,1.15 h 1.26 c 0.64,0 1.42,-0.13 2.35,-0.41 0.93,-0.27 1.83,-0.69 2.71,-1.27 z m -3.93,-3.79 h -0.98 c -0.28,0 -0.52,-0.09 -0.71,-0.28 -0.18,-0.19 -0.28,-0.42 -0.28,-0.7 v -5.2 c 0,-0.74 0.38,-1.12 1.13,-1.12 h 4.21 v 6.74 c -1.26,0.37 -2.38,0.56 -3.37,0.56 z m 17.26,-10.53 h -7.02 v 3.79 h 2.11 V 0 h 4.91 z m -4.91,-5.61 V -16 h 4.91 v -3.93 z m 7.16,16 v 3.65 c 3.8,0.37 7.35,0.56 10.67,0.56 1.27,0 2.29,-0.38 3.06,-1.15 0.76,-0.77 1.15,-1.79 1.15,-3.06 v -1.12 c 0,-1.28 -0.39,-2.3 -1.15,-3.06 -0.77,-0.77 -1.79,-1.15 -3.06,-1.15 h -5.06 c -0.28,0 -0.51,-0.1 -0.7,-0.28 -0.19,-0.19 -0.28,-0.43 -0.28,-0.71 0,-0.28 0.09,-0.51 0.28,-0.7 0.19,-0.19 0.42,-0.28 0.7,-0.28 h 7.86 v -3.65 h -9.54 c -1.27,0 -2.29,0.39 -3.06,1.15 -0.77,0.77 -1.15,1.79 -1.15,3.06 v 0.99 c 0,1.27 0.38,2.29 1.15,3.05 0.77,0.77 1.79,1.16 3.06,1.16 h 6.03 v 0.98 c 0,0.28 -0.09,0.51 -0.28,0.7 -0.18,0.19 -0.42,0.28 -0.7,0.28 -2.19,0 -5.18,-0.14 -8.98,-0.42 z m 30.04,3.65 v -3.65 c -3.37,0.28 -5.9,0.42 -7.58,0.42 -0.28,0 -0.52,-0.09 -0.71,-0.28 -0.18,-0.19 -0.28,-0.42 -0.28,-0.7 v -5.48 c 0,-0.74 0.38,-1.12 1.13,-1.12 h 7.44 v -3.79 h -8.99 c -1.4,0 -2.5,0.4 -3.3,1.19 -0.79,0.8 -1.19,1.9 -1.19,3.3 v 6.46 c 0,1.27 0.38,2.29 1.15,3.06 0.77,0.77 1.79,1.15 3.06,1.15 2.68,0 5.77,-0.19 9.27,-0.56 z m 17.4,-3.93 v -6.46 c 0,-1.4 -0.4,-2.5 -1.19,-3.3 -0.8,-0.79 -1.9,-1.19 -3.3,-1.19 h -6.46 c -1.4,0 -2.5,0.4 -3.3,1.19 -0.79,0.8 -1.19,1.9 -1.19,3.3 v 6.46 c 0,1.4 0.4,2.5 1.19,3.3 0.8,0.79 1.9,1.19 3.3,1.19 h 6.46 c 1.4,0 2.5,-0.4 3.3,-1.19 0.79,-0.8 1.19,-1.9 1.19,-3.3 z m -4.91,-6.04 v 5.62 c 0,0.75 -0.38,1.12 -1.12,1.12 h -3.37 c -0.75,0 -1.13,-0.37 -1.13,-1.12 v -5.62 c 0,-0.74 0.38,-1.12 1.13,-1.12 h 3.37 c 0.74,0 1.12,0.38 1.12,1.12 z m 17.12,-4.63 -3.23,10.11 -3.22,-10.11 h -5.2 L 158.05,0 h 5.61 l 5.62,-14.88 z m 11.79,3.23 h 2.53 c 0.75,0 1.12,0.37 1.12,1.12 v 1.55 h -4.77 v -1.55 c 0,-0.75 0.37,-1.12 1.12,-1.12 z m 8,11.37 v -3.51 c -3.57,0.28 -6.29,0.42 -8.14,0.42 -0.28,0 -0.51,-0.09 -0.7,-0.28 -0.19,-0.19 -0.28,-0.42 -0.28,-0.7 v -1.12 h 9.68 v -5.2 c 0,-1.4 -0.39,-2.5 -1.19,-3.3 -0.79,-0.79 -1.89,-1.19 -3.3,-1.19 h -5.61 c -1.41,0 -2.5,0.4 -3.3,1.19 -0.8,0.8 -1.19,1.9 -1.19,3.3 v 6.74 c 0,1.27 0.38,2.29 1.15,3.06 0.77,0.77 1.79,1.15 3.06,1.15 2.94,0 6.21,-0.19 9.82,-0.56 z m 11.65,-10.53 h 2.39 v -4.35 h -1.26 c -1.76,0 -3.45,0.7 -5.06,2.11 l -0.28,-1.83 h -4.35 V 0 h 4.91 v -9.97 c 1.26,-0.56 2.47,-0.84 3.65,-0.84 z m 8.28,15.86 c 1.48,0 2.65,-0.38 3.51,-1.13 0.86,-0.76 1.57,-1.88 2.11,-3.36 l 5.61,-15.44 h -5.19 l -2.95,9.55 -3.51,-9.55 h -5.19 l 5.75,13.76 c 0.3,0.71 0.35,1.26 0.13,1.65 -0.21,0.4 -0.68,0.59 -1.39,0.59 h -2.53 v 3.65 c 1.45,0.19 2.66,0.28 3.65,0.28 z M 234.68,0 v -3.65 h -3.65 c -0.28,0 -0.51,-0.09 -0.7,-0.28 -0.18,-0.19 -0.28,-0.42 -0.28,-0.7 v -6.46 h 3.51 v -3.79 h -3.51 v -3.37 h -4.35 l -0.56,3.37 h -1.69 v 3.79 h 1.69 v 7.16 c 0,1.27 0.38,2.29 1.15,3.06 0.77,0.77 1.79,1.15 3.06,1.15 1.74,0 3.52,-0.09 5.33,-0.28 z m 16.57,-4.21 v -6.46 c 0,-1.4 -0.4,-2.5 -1.2,-3.3 -0.79,-0.79 -1.89,-1.19 -3.3,-1.19 h -6.45 c -1.41,0 -2.51,0.4 -3.3,1.19 -0.8,0.8 -1.19,1.9 -1.19,3.3 v 6.46 c 0,1.4 0.39,2.5 1.19,3.3 0.79,0.79 1.89,1.19 3.3,1.19 h 6.45 c 1.41,0 2.51,-0.4 3.3,-1.19 0.8,-0.8 1.2,-1.9 1.2,-3.3 z m -4.92,-6.04 v 5.62 c 0,0.75 -0.37,1.12 -1.12,1.12 h -3.37 c -0.75,0 -1.12,-0.37 -1.12,-1.12 v -5.62 c 0,-0.74 0.37,-1.12 1.12,-1.12 h 3.37 c 0.75,0 1.12,0.38 1.12,1.12 z m 22.6,6.04 v -6.46 c 0,-1.4 -0.4,-2.5 -1.19,-3.3 -0.8,-0.79 -1.9,-1.19 -3.3,-1.19 h -6.46 c -1.4,0 -2.5,0.4 -3.29,1.19 -0.8,0.8 -1.2,1.9 -1.2,3.3 v 6.46 c 0,1.4 0.4,2.5 1.2,3.3 0.79,0.79 1.89,1.19 3.29,1.19 h 6.46 c 1.4,0 2.5,-0.4 3.3,-1.19 0.79,-0.8 1.19,-1.9 1.19,-3.3 z m -4.91,-6.04 v 5.62 c 0,0.75 -0.38,1.12 -1.12,1.12 h -3.37 c -0.75,0 -1.13,-0.37 -1.13,-1.12 v -5.62 c 0,-0.74 0.38,-1.12 1.13,-1.12 h 3.37 c 0.74,0 1.12,0.38 1.12,1.12 z M 279.04,0 v -3.65 h -1.69 c -0.28,0 -0.51,-0.09 -0.7,-0.28 -0.19,-0.19 -0.28,-0.42 -0.28,-0.7 v -15.02 h -4.91 v 15.72 c 0,1.27 0.38,2.29 1.15,3.06 0.77,0.77 1.72,1.15 2.85,1.15 1.13,0 2.32,-0.09 3.58,-0.28 z m 6.88,-5.9 h 2.1 l 3.23,5.9 h 5.19 l -4.21,-7.72 4.21,-7.16 h -5.19 l -3.09,5.2 h -2.24 v -9.97 H 281 V 0 h 4.92 z m 18.1,-8.42 H 297 v 3.79 h 2.11 V 0 h 4.91 z m -4.91,-5.61 V -16 h 4.91 v -3.93 z M 317.22,0 v -3.65 h -3.65 c -0.28,0 -0.52,-0.09 -0.71,-0.28 -0.18,-0.19 -0.28,-0.42 -0.28,-0.7 v -6.46 h 3.51 v -3.79 h -3.51 v -3.37 h -4.35 l -0.56,3.37 h -1.68 v 3.79 h 1.68 v 7.16 c 0,1.27 0.38,2.29 1.15,3.06 0.77,0.77 1.79,1.15 3.06,1.15 1.74,0 3.52,-0.09 5.34,-0.28 z"
             inkscape:connector-curvature="0"
             style="fill:#363636;stroke:none;stroke-width:1px" />
        </g>
      </g>
      <g
         style="fill:#ffffff;stroke:none;stroke-width:1.4337908;stroke-miterlimit:4;stroke-dasharray:none"
         transform="matrix(-0.01798633,0.14156986,-0.14156986,-0.01798633,-350.81747,15.269932)"
         id="SvgjsG1008-3">
        <path
           style="fill:#ffffff;stroke:#ffffff;stroke-width:1.77285242;stroke-miterlimit:4;stroke-dasharray:none;stroke-opacity:1"
           inkscape:connector-curvature="0"
           d="M 34.737691,39.49502 H 23.560798 a 1.2393933,1.2393933 0 0 1 -1.075466,-0.620939 l -5.588446,-9.679189 a 1.2456027,1.2456027 0 0 1 0,-1.241877 l 5.588446,-9.67919 a 1.2418771,1.2418771 0 0 1 1.075466,-0.620939 h 11.176893 c 0.44335,0 0.854412,0.235957 1.075466,0.620939 l 5.588447,9.67919 c 0.222296,0.384982 0.222296,0.856895 0,1.241877 l -5.588447,9.679189 a 1.2393933,1.2393933 0 0 1 -1.075466,0.620939 z m -10.46033,-2.483754 h 9.743767 l 4.871884,-8.437313 -4.871884,-8.437312 h -9.743767 l -4.870642,8.437312 z"
           id="path880" />
        <path
           style="fill:#ffffff;stroke:#ffffff;stroke-width:1.77285242;stroke-miterlimit:4;stroke-dasharray:none;stroke-opacity:1"
           inkscape:connector-curvature="0"
           d="M 17.972351,29.81583 H 6.6240786 a 1.2418771,1.2418771 0 1 1 0,-2.483754 H 17.972351 a 1.2418771,1.2418771 0 0 1 0,2.483754 z"
           id="path882" />
        <path
           sodipodi:nodetypes="sssss"
           style="fill:#ffffff;stroke:#ffffff;stroke-width:1.77285242;stroke-miterlimit:4;stroke-dasharray:none;stroke-opacity:1"
           inkscape:connector-curvature="0"
           d="M 51.675652,29.81583 H 40.326138 c -1.655836,0 -1.655836,-2.483754 0,-2.483754 h 11.349514 c 1.655836,0 1.655836,2.483754 0,2.483754 z"
           id="path884" />
        <path
           sodipodi:nodetypes="cccccc"
           style="fill:#ffffff;stroke:#ffffff;stroke-width:1.77285242;stroke-miterlimit:4;stroke-dasharray:none;stroke-opacity:1"
           inkscape:connector-curvature="0"
           d="m 23.578184,20.127947 c -0.444812,6.23e-4 -0.855988,-0.236704 -1.077949,-0.62218 L 16.841001,9.6688588 C 15.955543,8.2183155 18.184286,6.9361125 18.993174,8.4307074 l 5.659234,9.8369086 c 0.474858,0.826874 -0.120698,1.858256 -1.074224,1.860331 z"
           id="path886" />
        <path
           sodipodi:nodetypes="cccccc"
           style="fill:#ffffff;stroke:#ffffff;stroke-width:1.77285242;stroke-miterlimit:4;stroke-dasharray:none;stroke-opacity:1"
           inkscape:connector-curvature="0"
           d="m 40.382023,49.341863 c -0.444812,6.22e-4 -0.855989,-0.236704 -1.07795,-0.62218 l -5.660475,-9.83815 C 32.896817,37.468102 34.95,36.286396 35.797012,37.642139 l 5.660476,9.83815 c 0.47466,0.827628 -0.121393,1.859355 -1.075465,1.861574 z"
           id="path888" />
        <path
           sodipodi:nodetypes="cccccc"
           style="fill:#ffffff;stroke:#ffffff;stroke-width:1.77285242;stroke-miterlimit:4;stroke-dasharray:none;stroke-opacity:1"
           inkscape:connector-curvature="0"
           d="m 34.784883,20.165204 c -0.958574,-0.0011 -1.554578,-1.041662 -1.070498,-1.869025 l 5.723811,-9.7984102 c 0.818804,-1.490485 3.040565,-0.1916692 2.14348,1.2530539 l -5.723812,9.7984103 c -0.221902,0.382298 -0.63095,0.617122 -1.072981,0.615971 z"
           id="path890" />
        <path
           sodipodi:nodetypes="ccccccc"
           style="fill:#ffffff;stroke:#ffffff;stroke-width:1.77285242;stroke-miterlimit:4;stroke-dasharray:none;stroke-opacity:1"
           inkscape:connector-curvature="0"
           d="m 17.78607,49.266109 c -0.958579,3.7e-5 -1.555065,-1.040699 -1.070498,-1.867783 l 5.723811,-9.799652 c 0.345085,-0.593481 1.10685,-0.793388 1.698888,-0.445834 0.592138,0.345503 0.791801,1.10578 0.445834,1.697646 l -5.723812,9.799652 c -0.223056,0.381746 -0.632088,0.61629 -1.074223,0.615971 z"
           id="path892" />
      </g>
      <g
         style="fill:#ffffff;stroke:none;stroke-width:1px"
         transform="matrix(0.18313694,0.05367922,-0.05367922,0.18313694,-351.34053,23.965311)"
         id="SvgjsG1008-6">
        <path
           style="fill:#ffffff;stroke:#ffffff;stroke-width:1.3341732;stroke-miterlimit:4;stroke-dasharray:none;stroke-opacity:1"
           inkscape:connector-curvature="0"
           d="M 12.782,39.166 A 1,1 0 0 1 12.004,38.794 L 3.286,27.981 A 0.997,0.997 0 0 1 3.132,26.993 L 8.139,14.035 A 0.999,0.999 0 0 1 8.975,13.4 l 14.334,-1.384 c 0.34,-0.027 0.664,0.107 0.875,0.368 l 7.493,9.297 c 0.211,0.262 0.276,0.612 0.174,0.933 l -4.394,13.712 c -0.115,0.36 -0.424,0.625 -0.798,0.684 l -13.723,2.145 a 1.14,1.14 0 0 1 -0.154,0.011 z m -7.577,-11.99 7.993,9.913 12.543,-1.96 4.04,-12.612 -6.817,-8.458 -13.183,1.273 z"
           id="path915" />
        <path
           style="fill:#ffffff;stroke:#ffffff;stroke-width:1.3341732;stroke-miterlimit:4;stroke-dasharray:none;stroke-opacity:1"
           inkscape:connector-curvature="0"
           d="M 30.693,23.053 A 0.997,0.997 0 0 1 29.915,22.68 L 22.832,13.895 A 0.997,0.997 0 0 1 22.678,12.907 L 26.745,2.38 a 0.999,0.999 0 0 1 0.778,-0.627 l 11.15,-1.741 a 0.992,0.992 0 0 1 0.933,0.36 l 7.082,8.785 a 0.997,0.997 0 0 1 0.154,0.988 l -4.067,10.527 a 0.999,0.999 0 0 1 -0.778,0.627 L 30.848,23.04 a 0.91,0.91 0 0 1 -0.155,0.013 z M 24.752,13.09 31.109,20.976 41.118,19.413 44.769,9.963 38.412,2.077 28.402,3.64 Z M 9.38,15.78 A 0.995,0.995 0 0 1 8.601,15.407 L 1.311,6.365 A 1,1 0 1 1 2.868,5.11 l 7.29,9.042 A 1,1 0 0 1 9.38,15.78 Z M 10.2,48 A 1.002,1.002 0 0 1 9.244,46.703 l 2.698,-8.691 a 1.002,1.002 0 0 1 1.251,-0.658 c 0.527,0.164 0.822,0.724 0.659,1.252 l -2.698,8.691 A 0.999,0.999 0 0 1 10.2,48 Z"
           id="path917" />
      </g>
      <g
         style="fill:#ffffff;stroke:none;stroke-width:1px"
         transform="matrix(-0.05358898,-0.1053654,0.1053654,-0.05358898,-355.43776,38.726747)"
         id="SvgjsG1008-7" />
      <g
         style="fill:#2377f6;stroke:none;stroke-width:1px"
         transform="matrix(0.26458333,0,0,0.26458333,-349.58056,6.5723494)"
         id="SvgjsG1008-5">
        <g
           transform="translate(-1.3889598,-3.535534)"
           id="g960" />
      </g>
    </g>
  </g>
</svg>
